<?xml version="1.0" encoding="UTF-8" standalone="no"?>
<!-- Generator: Adobe Illustrator 18.1.0, SVG Export Plug-In . SVG Version: 6.00 Build 0)  -->
<!DOCTYPE svg  PUBLIC '-//W3C//DTD SVG 1.1//EN'  'http://www.w3.org/Graphics/SVG/1.1/DTD/svg11.dtd'>
<svg id="Layer_1" xmlns="http://www.w3.org/2000/svg" enable-background="new 0 0 77.3 80.7" xml:space="preserve" viewBox="0 0 77.3 80.7" version="1.1" y="0px" x="0px" xmlns:xlink="http://www.w3.org/1999/xlink" fill="#333">
	<path d="m65.1 46.9h-9.1c-0.5 0-0.9 0.3-0.9 0.8v10.1h-32.9v-10c0-0.5-0.4-0.8-0.9-0.8h-9c-0.5 0-0.9 0.3-0.9 0.8v20.2c0 0.1 0.1 0.2 0.1 0.3s0 0.2 0.1 0.3c0 0 0.1 0 0.2 0.1s0.3 0.2 0.4 0.2h53c0.2 0 0.3-0.1 0.4-0.2 0.1 0 0.2 0 0.2-0.1s0-0.1 0.1-0.2 0.2-0.2 0.2-0.4v-20.2c-0.2-0.6-0.5-0.9-1-0.9"/>
	<path d="m51.5 27.2l-0.2-0.2v-0.1l-11.2-14.7c-0.4-0.4-1-0.4-1.5 0.1l-12.5 14.6v0.1l-0.2 0.2h0.1c-0.1 0.3-0.1 0.6 0.2 0.9h7v20.6c0 0.5 0.4 0.8 0.9 0.8h9c0.5 0 0.9-0.3 0.9-0.8v-20.6h7.3c0.3-0.3 0.3-0.6 0.2-0.9z"/>
</svg>
